# xmcd
#
# Track frame offsets: 
#        150
#        12703
#        23804
#        39243
#        52098
#        64839
#        78711
#        90304
#        104025
#        117526
#        129464
#        141758
#        154628
#        166987
#        182350
#        195998
#        211925
#        223212
#        234572
#        248077
#        262160
#        273279
#        288741
#
# Disc length: 4020 seconds
#
# Revision: 4
# Processed by: cddbd v1.5PL3 Copyright (c) Steve Scherf et al.
# Submitted via: ExactAudioCopy v0.90b4
#
DISCID=550fb217
DTITLE=Conway Twitty - The Conway Twitty Collection - Disc 2
DYEAR=1994
DGENRE=Country
TTITLE0=I Wonder What She'll Think About Me Leaving
TTITLE1=Lead Me On (With Loretta Lynn)
TTITLE2=(Lost Her Love) On Our Last Date
TTITLE3=I Can't Stop Loving You
TTITLE4=She Needs Someone To Hold Her (When She Cries)
TTITLE5=Baby's Gone
TTITLE6=Louisiana Woman, Mississippi Man (w-Loretta Lynn)
TTITLE7=You've Never Been This Far Before
TTITLE8=There's A Honky Tonk Angel (Who'll Take Me Back In)
TTITLE9=I'm Not Through Loving You Yet
TTITLE10=As Soon As I Hang Up The Phone (w-Loretta Lynn)
TTITLE11=I See The Want To In Your Eyes
TTITLE12=Linda On My Mind
TTITLE13=Touch The Hand
TTITLE14=Feelins' (w-Loretta Lynn)
TTITLE15=I Just Had You On My Mind (Previously Unreleased)
TTITLE16=Hello Darlin' (In Russian)
TTITLE17=This Time I've Hurt Her More Than She Loves Me
TTITLE18=After All The Good Is Gone
TTITLE19=The Games That Daddies Play
TTITLE20=(I Can't Believe) She Gives It All To Me
TTITLE21=Play Guitar Play
TTITLE22=No Relief In Sight (Previously Unreleased)
EXTD=YEAR: 1994
EXTT0=
EXTT1=
EXTT2=
EXTT3=
EXTT4=
EXTT5=
EXTT6=
EXTT7=
EXTT8=
EXTT9=
EXTT10=
EXTT11=
EXTT12=
EXTT13=
EXTT14=
EXTT15=
EXTT16=
EXTT17=
EXTT18=
EXTT19=
EXTT20=
EXTT21=
EXTT22=
PLAYORDER=
